<svg width="49" height="63" viewBox="0 0 49 63" fill="none" xmlns="http://www.w3.org/2000/svg">
<path d="M0.600098 25.56C0.636023 34.1102 4.82471 62.0586 11.8247 62.0586C18.8247 62.0586 19.6648 51.5341 25.7301 51.5C30.8991 51.5 31.7083 56.7898 36.4401 53.5C41.2562 50.1516 48.0521 38.2212 48.9701 31.23C44.7001 31.23 40.8501 31.23 36.6501 31.23C35.3201 36.48 31.0501 39.14 25.7301 39.14C18.3101 39.07 13.5501 32.77 13.5501 25.56C13.5501 17.44 18.3801 11.91 25.7301 11.91C30.9801 11.91 34.6901 14.15 36.4401 19.12C40.7101 19.12 44.4901 19.12 48.7601 19.12C46.8701 6.03 35.8801 0.5 25.7301 0.5C13.2701 0.5 0.670098 8.9 0.600098 25.56Z" fill="url(#paint0_linear)"/>
<defs>
<linearGradient id="paint0_linear" x1="24.7851" y1="0.5" x2="24.7851" y2="62.0586" gradientUnits="userSpaceOnUse">
<stop stop-color="#C0E751"/>
<stop offset="1" stop-color="#6D8612"/>
</linearGradient>
</defs>
</svg>
