<svg width="234" height="224" viewBox="0 0 234 224" fill="none" xmlns="http://www.w3.org/2000/svg">
<path fill-rule="evenodd" clip-rule="evenodd" d="M0.308905 64.1184C4.98798 42.7168 40.7305 33.975 56.1076 18.3029C74.549 -0.49233 92.7479 -2.18652 118.911 3.88338C145.616 10.0791 153.469 26.8637 173.469 45.5314C192.113 62.9327 209.448 64.9959 221.429 87.3207C234.416 111.519 238.551 127.106 223.204 149.439C207.947 171.644 186.22 167.961 161.274 178.836C140.531 187.879 127.434 225.711 104.644 223.94C81.7996 222.165 81.8226 191.169 67.7518 173.175C55.6929 157.755 35.9287 160.812 31.5771 130.503C30.321 109.219 -3.55461 81.7898 0.308905 64.1184Z" fill="url(#paint0_linear)" fill-opacity="0.8"/>
<defs>
<linearGradient id="paint0_linear" x1="234.31" y1="107.435" x2="48.5479" y2="94.5432" gradientUnits="userSpaceOnUse">
<stop stop-color="#C0E751"/>
<stop offset="1" stop-color="#6D8612"/>
</linearGradient>
</defs>
</svg>
