<svg width="236" height="583" viewBox="0 0 236 583" fill="none" xmlns="http://www.w3.org/2000/svg">
<path fill-rule="evenodd" clip-rule="evenodd" d="M234.068 390.292C217.279 441.39 136.167 460.436 97.642 497.21C51.4404 541.311 22.313 595.182 -33.2607 579.206C-89.9862 562.899 -113.443 471.414 -151.652 425.544C-187.271 382.786 -224.691 376.9 -244.187 322.688C-265.318 263.927 -269.645 226.304 -229.158 173.546C-188.906 121.092 -142.342 131.102 -84.2759 106.355C-35.9945 85.7776 4.27802 -4.28963 53.7593 1.18931C103.357 6.68118 93.8641 81.0511 119.266 124.984C141.035 162.635 185.345 156.367 185.663 229.322C181.936 280.46 247.932 348.1 234.068 390.292Z" fill="url(#paint0_linear)" fill-opacity="0.8"/>
<defs>
<linearGradient id="paint0_linear" x1="45.5" y1="66" x2="-36.9996" y2="488.271" gradientUnits="userSpaceOnUse">
<stop stop-color="#C0E751"/>
<stop offset="1" stop-color="#6D8612"/>
</linearGradient>
</defs>
</svg>
