<svg width="393" height="655" viewBox="0 0 393 655" fill="none" xmlns="http://www.w3.org/2000/svg">
<path fill-rule="evenodd" clip-rule="evenodd" d="M575.483 387.125C566.055 436.11 556.771 486.544 522.663 523.097C481.757 566.935 428.32 621.356 368.418 609.033C307.274 596.455 300.545 509.171 253.951 467.819C210.518 429.272 137.396 428.799 108.848 378.664C77.9049 324.322 75.1902 251.715 108.848 200C142.312 148.583 227.789 185.328 283.954 159.148C330.655 137.379 348.453 55.0374 400.433 57.7669C452.535 60.5028 492.664 105.213 525.722 145.369C554.053 179.783 563.206 223.106 572.094 266.289C580.45 306.883 583.269 346.678 575.483 387.125Z" fill="url(#paint0_linear)" fill-opacity="0.5"/>
<defs>
<linearGradient id="paint0_linear" x1="132.316" y1="347.699" x2="555.914" y2="366.436" gradientUnits="userSpaceOnUse">
<stop stop-color="#45C6DD"/>
<stop offset="1" stop-color="#187B93"/>
</linearGradient>
</defs>
</svg>
