<svg width="100" height="100" viewBox="0 0 100 100" fill="none" xmlns="http://www.w3.org/2000/svg">
<path d="M85.2323 14.7677C80.6138 10.1035 75.1192 6.39782 69.0642 3.86353C63.0092 1.32924 56.5131 0.0163064 49.9492 0.000150931C43.3853 -0.0160046 36.8828 1.26494 30.8154 3.76939C24.748 6.27384 19.2353 9.95245 14.5939 14.5939C9.95245 19.2353 6.27384 24.748 3.76939 30.8154C1.26494 36.8828 -0.0160046 43.3853 0.000150931 49.9492C0.0163064 56.5131 1.32924 63.0092 3.86353 69.0642C6.39782 75.1192 10.1035 80.6138 14.7677 85.2323C19.3862 89.8965 24.8808 93.6022 30.9358 96.1365C36.9908 98.6708 43.4869 99.9837 50.0508 99.9998C56.6147 100.016 63.1172 98.7351 69.1846 96.2306C75.252 93.7262 80.7647 90.0476 85.4061 85.4061C90.0476 80.7647 93.7262 75.252 96.2306 69.1846C98.7351 63.1172 100.016 56.6147 99.9998 50.0508C99.9837 43.4869 98.6708 36.9908 96.1365 30.9358C93.6022 24.8808 89.8965 19.3862 85.2323 14.7677ZM7.29151 50C7.28992 46.2201 7.79109 42.4568 8.78186 38.809C10.4146 42.3236 12.7858 45.3599 14.3985 48.9657C16.4827 53.6013 22.0793 52.3156 24.5506 56.3773C26.7439 59.9831 24.4016 64.5431 26.0432 68.3157C27.2355 71.0539 30.0471 71.6523 31.9868 73.6543C33.9687 75.674 33.9265 78.4412 34.229 81.0749C34.5704 84.1693 35.1241 87.2365 35.8862 90.255C35.8862 90.2772 35.8862 90.3017 35.904 90.3239C19.2588 84.4782 7.29151 68.6116 7.29151 50ZM50 92.7085C47.6149 92.7077 45.2339 92.5083 42.8819 92.1124C42.9064 91.5095 42.9175 90.9468 42.9776 90.5553C43.5181 87.0185 45.2887 83.5595 47.6777 80.9125C50.0378 78.301 53.2721 76.5349 55.2652 73.572C57.2182 70.6803 57.8032 66.7876 56.998 63.4087C55.8124 58.4171 49.0302 56.7511 45.3732 54.044C43.2712 52.4869 41.4005 50.0801 38.64 49.8843C37.3676 49.7954 36.3021 50.069 35.0409 49.7442C33.8842 49.4439 32.9767 48.8211 31.7443 48.9834C29.4421 49.286 27.9896 51.7462 25.516 51.4125C23.1693 51.0989 20.7514 48.3517 20.2175 46.1162C19.5324 43.2423 21.8057 42.3102 24.2414 42.0544C25.258 41.9477 26.3991 41.832 27.3756 42.2057C28.6613 42.6817 29.2686 43.9407 30.4231 44.5769C32.5874 45.7647 33.0256 43.8673 32.6942 41.9454C32.1981 39.0671 31.6198 37.8948 34.1867 35.9129C35.9663 34.5471 37.4877 33.5595 37.203 31.1059C37.034 29.6645 36.2443 29.0128 36.9806 27.578C37.5389 26.4859 39.0715 25.5005 40.0703 24.8487C42.6484 23.1671 51.1144 23.2916 47.6555 18.5848C46.6389 17.2034 44.7638 14.7344 42.9842 14.3962C40.7598 13.9758 39.7722 16.4583 38.2218 17.5527C36.6202 18.6849 33.5016 19.9706 31.8978 18.22C29.7402 15.8644 33.3281 15.0925 34.1222 13.4464C34.4893 12.679 34.1222 11.6135 33.5038 10.6103C34.3061 10.2722 35.1217 9.95857 35.9507 9.6694C36.4702 10.0531 37.0865 10.2842 37.7302 10.3367C39.2183 10.4346 40.6219 9.62936 41.921 10.6437C43.3624 11.7559 44.4012 13.1617 46.3142 13.5087C48.1649 13.8446 50.1246 12.7658 50.5828 10.8706C50.8608 9.71833 50.5828 8.50159 50.3159 7.31153C58.6352 7.3594 66.757 9.85087 73.6721 14.4763C73.2272 14.3073 72.6956 14.3273 72.0394 14.632C70.6891 15.2593 68.7762 16.8564 68.6182 18.4402C68.4381 20.2375 71.0895 20.4911 72.3486 20.4911C74.2393 20.4911 76.1545 19.6458 75.545 17.4615C75.2803 16.5139 74.92 15.5285 74.3394 14.9323C75.735 15.9007 77.072 16.951 78.3433 18.0776C78.3233 18.0977 78.3033 18.1154 78.2832 18.1377C77.002 19.4723 75.5139 20.5289 74.6375 22.1527C74.0191 23.2961 73.3228 23.8388 72.0705 24.1347C71.3809 24.2971 70.5935 24.3571 70.0152 24.8198C68.4047 26.0877 69.3211 29.1351 70.8471 30.0494C72.7756 31.2038 75.6362 30.6611 77.091 29.0128C78.2276 27.7226 78.8972 25.4827 80.9414 25.4849C81.8414 25.483 82.706 25.8354 83.3482 26.4658C84.1935 27.3423 84.0267 28.1608 84.2068 29.2552C84.5249 31.1994 86.2399 30.145 87.2832 29.164C88.0436 30.5174 88.7298 31.9112 89.3385 33.3392C88.1907 34.992 87.2787 36.7937 84.5182 34.8674C82.8655 33.7129 81.849 32.038 79.7736 31.5175C77.9607 31.0726 76.1033 31.5352 74.3127 31.8444C72.2774 32.1981 69.8639 32.3538 68.3202 33.8953C66.8276 35.3812 66.0379 37.3699 64.4497 38.8624C61.3778 41.7541 60.081 44.9106 62.0696 48.999C63.9826 52.9295 67.9843 55.0627 72.3018 54.7825C76.5438 54.5 80.9503 52.0398 80.828 58.2036C80.7835 60.3857 81.2395 61.8961 81.909 63.9225C82.5296 65.791 82.4874 67.6017 82.6297 69.5302C82.7651 71.7886 83.1182 74.0285 83.6841 76.219C79.6971 81.3524 74.5895 85.5067 68.7516 88.3645C62.9137 91.2224 56.4999 92.7082 50 92.7085Z" fill="#515151"/>
</svg>
