<svg width="91" height="94" viewBox="0 0 91 94" fill="none" xmlns="http://www.w3.org/2000/svg">
<path d="M45.2019 0.105469C36.2906 0.12452 27.5841 2.87311 20.1798 8.00481C12.7755 13.1365 7.00481 20.4216 3.595 28.942C0.185182 37.4624 -0.711129 46.8367 1.01903 55.8835C2.74918 64.9302 7.02838 73.2445 13.3173 79.7783L5.09626 88.2861C4.79778 88.6016 4.56227 88.9748 4.40316 89.3845C4.24406 89.7941 4.16448 90.2322 4.16897 90.6737C4.17346 91.1152 4.26193 91.5514 4.42934 91.9575C4.59674 92.3636 4.83979 92.7316 5.14462 93.0405C5.44945 93.3494 5.81008 93.5931 6.20593 93.7577C6.60177 93.9224 7.02508 94.0048 7.45168 94.0001C7.87828 93.9955 8.29982 93.9039 8.69223 93.7307C9.08464 93.5574 9.44024 93.3059 9.73871 92.9904L18.3144 84.1156C26.1567 90.2571 35.7334 93.5583 45.5679 93.5101C55.4024 93.4618 64.9485 90.0669 72.7342 83.8487L81.5678 92.9904C82.1845 93.537 82.9779 93.8226 83.7892 93.7902C84.6006 93.7578 85.3703 93.4097 85.9445 92.8155C86.5186 92.2213 86.855 91.4248 86.8863 90.5851C86.9177 89.7454 86.6417 88.9244 86.1135 88.2861L77.4412 79.4447C83.6416 72.8721 87.8319 64.5534 89.4878 55.5292C91.1438 46.5049 90.1919 37.1757 86.7512 28.7083C83.3105 20.241 77.5338 13.0115 70.1436 7.92403C62.7534 2.83656 54.0778 0.116986 45.2019 0.105469ZM69.2846 58.2587C68.9153 59.0534 68.2569 59.6646 67.4534 59.9584C66.6499 60.2523 65.7667 60.2049 64.9968 59.8268L41.978 48.2829V19.0895C41.978 18.2046 42.3176 17.356 42.9222 16.7303C43.5268 16.1046 44.3469 15.7531 45.2019 15.7531C46.0569 15.7531 46.877 16.1046 47.4816 16.7303C48.0862 17.356 48.4258 18.2046 48.4258 19.0895V44.1124L67.7694 53.8213C68.1553 54.0045 68.5024 54.2648 68.7909 54.5873C69.0793 54.9097 69.3033 55.288 69.4501 55.7003C69.5969 56.1126 69.6635 56.5509 69.6462 56.9899C69.6289 57.4289 69.5279 57.8601 69.3491 58.2587H69.2846Z" fill="#333333"/>
</svg>
