<svg width="110" height="110" viewBox="0 0 110 110" fill="none" xmlns="http://www.w3.org/2000/svg">
<path d="M110 32.6562C110 35.6641 109.338 38.457 108.013 41.0352C106.688 43.6133 104.88 45.7975 102.588 47.5879C102.946 49.0202 103.125 50.3451 103.125 51.5625C103.125 56.2891 101.442 60.3353 98.0762 63.7012C94.7103 67.0671 90.6641 68.75 85.9375 68.75C83.431 68.75 80.9603 68.1771 78.5254 67.0312C76.6634 69.681 74.2643 71.7757 71.3281 73.3154C68.3919 74.8551 65.2409 75.625 61.875 75.625C58.0794 75.625 54.5882 74.6582 51.4014 72.7246C48.2145 70.791 45.7259 68.1771 43.9355 64.8828C41.2142 67.4609 38.0273 68.75 34.375 68.75C30.5794 68.75 27.3389 67.4072 24.6533 64.7217C21.9678 62.0361 20.625 58.7956 20.625 55C14.8958 55 10.026 52.9948 6.01562 48.9844C2.00521 44.974 0 40.1042 0 34.375C0 28.6458 2.00521 23.776 6.01562 19.7656C10.026 15.7552 14.8958 13.75 20.625 13.75C23.5612 13.75 26.39 14.3587 29.1113 15.5762C30.8301 10.9928 33.7305 7.25098 37.8125 4.35059C41.8945 1.4502 46.4779 0 51.5625 0C55.1432 0 58.5091 0.769857 61.6602 2.30957C64.8112 3.84928 67.5326 5.94401 69.8242 8.59375C70.8268 6.01562 72.474 3.9388 74.7656 2.36328C77.0573 0.78776 79.6354 0 82.5 0C86.2956 0 89.5361 1.34277 92.2217 4.02832C94.9072 6.71387 96.25 9.95443 96.25 13.75C96.25 13.8216 96.2321 13.9469 96.1963 14.126C96.1605 14.305 96.1426 14.4303 96.1426 14.502C100.225 15.6478 103.555 17.8857 106.133 21.2158C108.711 24.5459 110 28.3594 110 32.6562ZM20.625 96.25C22.5586 96.25 24.1878 96.9124 25.5127 98.2373C26.8376 99.5622 27.5 101.174 27.5 103.071C27.5 104.969 26.8197 106.598 25.459 107.959C24.0983 109.32 22.4691 110 20.5713 110C18.6735 110 17.0622 109.32 15.7373 107.959C14.4124 106.598 13.75 104.987 13.75 103.125C13.75 101.263 14.4124 99.6517 15.7373 98.291C17.0622 96.9303 18.6914 96.25 20.625 96.25ZM37.8125 75.625C40.6771 75.625 43.112 76.6276 45.1172 78.6328C47.1224 80.638 48.125 83.0729 48.125 85.9375C48.125 88.8021 47.1224 91.237 45.1172 93.2422C43.112 95.2474 40.6771 96.25 37.8125 96.25C34.9479 96.25 32.513 95.2474 30.5078 93.2422C28.5026 91.237 27.5 88.8021 27.5 85.9375C27.5 83.0729 28.5026 80.638 30.5078 78.6328C32.513 76.6276 34.9479 75.625 37.8125 75.625Z" fill="#333333"/>
</svg>
