<svg width="100" height="160" viewBox="0 0 100 160" fill="none" xmlns="http://www.w3.org/2000/svg">
<path d="M73.7548 81.7906V67.8781H81.6946L99.1754 52.1462C99.431 51.9382 99.6388 51.6665 99.7821 51.3529C99.9253 51.0394 100 50.693 100 50.3415V3.41055C100 2.82448 99.7925 2.26179 99.4223 1.84328C99.052 1.42477 98.5484 1.1838 98.0196 1.17211L44.9124 0.000541697C44.5551 -0.00818274 44.2022 0.0886152 43.8899 0.280996C43.5775 0.473377 43.317 0.754407 43.1351 1.09523L29.2242 27.0365C28.5967 27.9912 29.0714 30.135 29.8898 40.2009C24.3807 40.1812 23.7163 39.9281 22.8293 41.0147L0.89007 65.0047C0.0183315 65.8094 0 66.5984 0 66.5984L1.4434 115.858H15.5883V160H67.55L83.6725 147.678C83.9499 147.474 84.1775 147.197 84.335 146.871C84.4924 146.546 84.5749 146.183 84.575 145.814V95.5135C84.575 94.9196 84.362 94.3501 83.9831 93.9302C83.6041 93.5103 83.0902 93.2744 82.5542 93.2744H65.2077C71.4648 85.2909 73.7559 83.5516 73.7548 81.7906ZM46.0084 4.50367L93.3084 5.54711L76.1331 25.6556H34.6631L46.0084 4.50367ZM5.18643 66.5984L25.0573 44.8703L30.1112 45.0062L31.1767 66.5984H5.18643ZM67.55 154.174V114.419L80.5335 102.002V144.613L67.55 154.173V154.174ZM78.7923 97.7525L62.5353 113.299H47.6311L61.6077 97.7525H78.7923ZM69.7134 80.9381L50.6838 104.608L51.384 67.8781H69.7134V80.9381ZM81.7925 60.7319L82.2719 25.6556L95.9586 8.95868V49.2075L81.7925 60.7319Z" fill="#515151"/>
</svg>
