<svg width="705" height="607" viewBox="0 0 705 607" fill="none" xmlns="http://www.w3.org/2000/svg">
<path fill-rule="evenodd" clip-rule="evenodd" d="M-487.021 -131.244C-493.807 -223.401 -501.691 -318.128 -449.515 -396.851C-386.943 -491.262 -303.65 -609.441 -170.278 -609.153C-34.1431 -608.859 27.6975 -453.299 148.765 -395.559C261.621 -341.735 416.477 -367.763 504.183 -287.486C599.249 -200.473 664.202 -69.1042 621.25 36.9049C578.546 142.302 358.175 106.292 253.708 174.343C166.844 230.927 145.486 442.604 32.497 483.21C-81.9525 524.341 -128.561 516.8 -225.712 465.041C-308.888 420.727 -371.593 161.211 -413.942 86.2929C-453.751 15.8658 -481.418 -55.1494 -487.021 -131.244Z" fill="url(#paint0_linear)"/>
<defs>
<linearGradient id="paint0_linear" x1="334.954" y1="143.205" x2="-271.027" y2="-0.872572" gradientUnits="userSpaceOnUse">
<stop stop-color="#C0E751" stop-opacity="0.6"/>
<stop offset="1" stop-color="#6D8612"/>
</linearGradient>
</defs>
</svg>
