<svg width="660" height="703" viewBox="0 0 660 703" fill="none" xmlns="http://www.w3.org/2000/svg">
<path fill-rule="evenodd" clip-rule="evenodd" d="M1174.16 689.94C1185.19 781.686 1197.44 875.948 1148.96 956.997C1090.81 1054.2 1013.07 1176.1 879.826 1181.97C743.822 1187.96 674.862 1035.43 551.257 983.341C436.035 934.788 282.546 967.941 191.226 891.801C92.2424 809.272 21.2901 681.044 59.2999 573.164C97.0901 465.907 318.889 491.699 420.101 418.896C504.259 358.359 515.816 145.922 626.809 100.14C739.236 53.7662 786.144 59.1457 885.581 106.362C970.716 146.787 1045.34 403.129 1091.11 476.011C1134.13 544.524 1165.04 614.186 1174.16 689.94Z" fill="url(#paint0_linear)"/>
<defs>
<linearGradient id="paint0_linear" x1="340.38" y1="453.753" x2="952.369" y2="569.685" gradientUnits="userSpaceOnUse">
<stop stop-color="#A7CA3E" stop-opacity="0.6"/>
<stop offset="1" stop-color="#6D8612"/>
</linearGradient>
</defs>
</svg>
