<svg width="596" height="676" viewBox="0 0 596 676" fill="none" xmlns="http://www.w3.org/2000/svg">
<path fill-rule="evenodd" clip-rule="evenodd" d="M-134.862 1188.86C-226.966 1196.33 -321.632 1204.91 -400.739 1153.32C-495.61 1091.45 -614.402 1009.03 -615.1 875.662C-615.813 739.528 -460.715 676.539 -403.872 555.047C-350.884 441.797 -378.057 287.137 -298.431 198.84C-212.123 103.133 -81.2384 37.2096 25.0855 79.3769C130.795 121.3 96.4161 341.932 165.238 445.892C222.463 532.335 434.292 552.127 475.733 664.813C517.709 778.955 510.514 825.618 459.474 923.149C415.776 1006.65 156.732 1071.27 82.1286 1114.17C11.9979 1154.5 -58.8107 1182.7 -134.862 1188.86Z" fill="url(#paint0_linear)"/>
<defs>
<linearGradient id="paint0_linear" x1="133.5" y1="364.879" x2="-6.09152" y2="971.909" gradientUnits="userSpaceOnUse">
<stop stop-color="#45C6DD" stop-opacity="0.35"/>
<stop offset="1" stop-color="#187B93"/>
</linearGradient>
</defs>
</svg>
