<svg width="262" height="639" viewBox="0 0 262 639" fill="none" xmlns="http://www.w3.org/2000/svg">
<path fill-rule="evenodd" clip-rule="evenodd" d="M-138.164 80.634C-92.8869 59.6957 -46.5181 37.7934 3.07173 44.1504C62.5436 51.7742 137.923 63.3949 162.884 119.226C188.363 176.213 121.421 232.628 115.043 294.598C109.098 352.364 151.398 412.011 127.356 464.456C101.296 521.301 47.1601 574.266 -14.4775 577.125C-75.759 579.968 -99.0522 480.739 -153.095 450.418C-198.031 425.206 -275.277 458.82 -303.403 415.022C-331.595 371.121 -318.718 312.439 -305.41 262.158C-294.005 219.066 -264.172 186.346 -234.298 153.921C-206.215 123.441 -175.549 97.9227 -138.164 80.634Z" fill="url(#paint0_linear)" fill-opacity="0.5"/>
<defs>
<linearGradient id="paint0_linear" x1="88.5144" y1="463.476" x2="-143.539" y2="108.601" gradientUnits="userSpaceOnUse">
<stop stop-color="#45C6DD"/>
<stop offset="1" stop-color="#187B93"/>
</linearGradient>
</defs>
</svg>
