<svg width="758" height="679" viewBox="0 0 758 679" fill="none" xmlns="http://www.w3.org/2000/svg">
<path fill-rule="evenodd" clip-rule="evenodd" d="M-464.176 -167.164C-460.899 -259.513 -458.435 -354.535 -398.008 -427.117C-325.539 -514.163 -229.887 -622.583 -97.3383 -607.792C37.9574 -592.695 82.5137 -431.332 196.584 -360.768C302.917 -294.99 459.686 -304.023 538.141 -214.684C623.18 -117.848 673.461 19.8053 619.235 120.514C565.322 220.642 350.174 160.88 238.926 217.166C146.424 263.968 102.172 472.067 -14.5628 500.144C-132.807 528.584 -178.319 516.02 -269.264 454.002C-347.128 400.905 -381.238 136.11 -415.188 57.03C-447.103 -17.3088 -466.882 -90.9117 -464.176 -167.164Z" fill="url(#paint0_linear)"/>
<defs>
<linearGradient id="paint0_linear" x1="526.166" y1="183.55" x2="-28.8112" y2="152.543" gradientUnits="userSpaceOnUse">
<stop stop-color="#528E72"/>
<stop offset="1" stop-color="#196390"/>
</linearGradient>
</defs>
</svg>
