<svg width="677" height="698" viewBox="0 0 677 698" fill="none" xmlns="http://www.w3.org/2000/svg">
<path fill-rule="evenodd" clip-rule="evenodd" d="M1193.87 745.363C1200.01 837.566 1207.23 932.346 1154.5 1010.7C1091.26 1104.67 1007.14 1222.26 873.775 1221.03C737.646 1219.78 676.901 1063.79 556.242 1005.2C443.768 950.583 288.732 975.521 201.593 894.629C107.142 806.95 43.1141 675.128 86.8112 569.423C130.256 464.329 350.368 501.889 455.311 434.574C542.571 378.602 565.417 167.081 678.689 127.27C793.425 86.9455 839.979 94.8137 936.763 147.255C1019.63 192.154 1080.5 452.103 1122.32 527.318C1161.64 598.023 1188.8 669.231 1193.87 745.363Z" fill="url(#paint0_linear)"/>
<defs>
<linearGradient id="paint0_linear" x1="245.056" y1="505.822" x2="768.935" y2="582.27" gradientUnits="userSpaceOnUse">
<stop stop-color="#9C4663"/>
<stop offset="1" stop-color="#8DA2D1"/>
</linearGradient>
</defs>
</svg>
