<svg width="608" height="647" viewBox="0 0 608 647" fill="none" xmlns="http://www.w3.org/2000/svg">
<path fill-rule="evenodd" clip-rule="evenodd" d="M-548.097 3.47447C-563.106 -87.7054 -579.439 -181.346 -534.521 -264.424C-480.652 -364.058 -408.273 -489.219 -275.412 -500.872C-139.797 -512.767 -64.2777 -363.368 61.4731 -316.699C178.694 -273.195 330.599 -312.982 425.139 -240.879C527.613 -162.726 604.067 -37.7005 570.778 71.7283C537.681 180.525 314.971 164.389 217.016 241.519C135.566 305.653 133.245 518.392 24.3449 568.95C-85.9627 620.162 -133.059 616.825 -234.453 573.971C-321.264 537.281 -406.95 284.421 -455.836 213.595C-501.791 147.015 -535.704 78.7617 -548.097 3.47447Z" fill="url(#paint0_linear)"/>
<defs>
<linearGradient id="paint0_linear" x1="295.148" y1="203.232" x2="-95.2736" y2="156.253" gradientUnits="userSpaceOnUse">
<stop stop-color="#DF99BC" stop-opacity="0.6"/>
<stop offset="1" stop-color="#D84964"/>
</linearGradient>
</defs>
</svg>
