<svg width="627" height="756" viewBox="0 0 627 756" fill="none" xmlns="http://www.w3.org/2000/svg">
<path fill-rule="evenodd" clip-rule="evenodd" d="M1146.39 576.308C1170.24 665.585 1195.64 757.183 1159.05 844.251C1115.17 948.671 1055.37 1080.3 924.278 1104.88C790.474 1129.97 700.722 988.659 571.013 954.497C450.103 922.652 302.812 977.088 201.68 914.565C92.0615 846.797 3.76006 729.837 26.2004 617.68C48.5111 506.17 271.732 500.474 361.684 414.143C436.479 342.36 418.008 130.411 521.447 69.4567C626.225 7.71395 673.422 6.43479 778.518 39.1789C868.497 67.2132 978.474 310.493 1034.04 376.205C1086.28 437.977 1126.7 502.591 1146.39 576.308Z" fill="url(#paint0_linear)"/>
<defs>
<linearGradient id="paint0_linear" x1="287.666" y1="459.879" x2="706.341" y2="510.463" gradientUnits="userSpaceOnUse">
<stop stop-color="#E398B8" stop-opacity="0.6"/>
<stop offset="1" stop-color="#DB5472"/>
</linearGradient>
</defs>
</svg>
