<svg width="419" height="887" viewBox="0 0 419 887" fill="none" xmlns="http://www.w3.org/2000/svg">
<path fill-rule="evenodd" clip-rule="evenodd" d="M-285.753 758.418C-338.566 735.507 -393.115 712.459 -421.462 660.9C-455.458 599.068 -496.576 518.926 -457.842 445.418C-418.305 370.386 -314.583 381.257 -247.707 331.154C-185.366 284.45 -154.938 191.475 -85.2757 166.299C-9.76726 139.011 81.5061 141.167 127.577 195.529C173.381 249.576 89.773 360.758 97.1071 438.083C103.205 502.379 213.827 575.388 203.553 649.478C193.146 724.525 175.504 748.062 118.845 786.697C70.3358 819.775 -90.9962 779.314 -144.583 781.013C-194.958 782.609 -242.145 777.335 -285.753 758.418Z" fill="url(#paint0_linear)"/>
<defs>
<linearGradient id="paint0_linear" x1="-59.0453" y1="203.069" x2="-104.657" y2="832.985" gradientUnits="userSpaceOnUse">
<stop stop-color="#7DD7E7"/>
<stop offset="1" stop-color="#187B93"/>
</linearGradient>
</defs>
</svg>
