<svg width="42" height="52" viewBox="0 0 42 52" fill="none" xmlns="http://www.w3.org/2000/svg">
<path d="M21 0C13.7629 0 7.875 5.8318 7.875 13V20.8H5.25C3.85761 20.8 2.52226 21.3479 1.53769 22.323C0.553123 23.2982 0 24.6209 0 26V46.8C0 48.1791 0.553123 49.5018 1.53769 50.477C2.52226 51.4521 3.85761 52 5.25 52H36.75C38.1424 52 39.4777 51.4521 40.4623 50.477C41.4469 49.5018 42 48.1791 42 46.8V26C42 24.6209 41.4469 23.2982 40.4623 22.323C39.4777 21.3479 38.1424 20.8 36.75 20.8H34.125V13C34.125 5.8318 28.2371 0 21 0ZM13.125 13C13.125 8.6996 16.6583 5.2 21 5.2C25.3417 5.2 28.875 8.6996 28.875 13V20.8H13.125V13ZM23.625 40.8798V46.8H18.375V40.8798C17.4573 40.3593 16.7203 39.5754 16.2614 38.6317C15.8025 37.688 15.6431 36.6287 15.8043 35.5934C15.9655 34.5581 16.4396 33.5956 17.1643 32.8326C17.8889 32.0697 18.83 31.5421 19.8634 31.3196C20.631 31.1515 21.4269 31.1562 22.1924 31.3333C22.9579 31.5105 23.6735 31.8556 24.2865 32.3431C24.8994 32.8307 25.394 33.4483 25.7339 34.1505C26.0737 34.8526 26.2501 35.6213 26.25 36.4C26.2485 37.3093 26.0051 38.2022 25.5442 38.9887C25.0834 39.7751 24.4214 40.4274 23.625 40.8798Z" fill="white"/>
</svg>
