<svg width="297" height="671" viewBox="0 0 297 671" fill="none" xmlns="http://www.w3.org/2000/svg">
<path fill-rule="evenodd" clip-rule="evenodd" d="M421.774 540.56C379.542 565.155 349.405 626.085 300.452 624.454C241.743 622.497 183.365 528.117 153.875 475.962C123.773 422.726 64.4897 382.53 65 321.5C65.4757 264.609 149.902 254.969 171.757 192.321C191.937 134.475 195.532 76.1673 255.387 67.6992C314.897 59.28 357.517 125.663 413.022 150.257C459.174 170.707 520.662 159.059 552.13 199.186C583.673 239.408 576.519 297.83 568.173 348.099C561.019 391.18 534.937 425.843 508.787 460.221C484.204 492.538 456.645 520.253 421.774 540.56Z" fill="url(#paint0_linear)"/>
<defs>
<linearGradient id="paint0_linear" x1="165.405" y1="188.039" x2="424.44" y2="512.789" gradientUnits="userSpaceOnUse">
<stop stop-color="#FCB03B"/>
<stop offset="1" stop-color="#F66A16"/>
</linearGradient>
</defs>
</svg>
