<svg width="174" height="438" viewBox="0 0 174 438" fill="none" xmlns="http://www.w3.org/2000/svg">
<path fill-rule="evenodd" clip-rule="evenodd" d="M-183.756 376.958C-218.822 344.374 -284.502 333.464 -296.901 287.119C-311.771 231.539 -239.923 149.974 -199.432 107.496C-158.102 64.1374 -112.264 19.4948 -54.9187 2.60953C-1.46366 -13.1304 -3.53914 81.7254 61.3945 84.385C121.351 86.8408 143.491 13.0879 168.456 66.777C193.278 120.156 125.879 166.888 118.62 225.906C112.584 274.98 167.89 302.497 137.77 342.341C88.6615 407.303 51.1229 339.988 1.63467 346.467C-40.7774 352.02 -44.0437 450.38 -83.7039 435.652C-120.986 421.807 -154.802 403.863 -183.756 376.958Z" fill="url(#paint0_linear)"/>
<defs>
<linearGradient id="paint0_linear" x1="76.2841" y1="52.106" x2="-154.385" y2="387.275" gradientUnits="userSpaceOnUse">
<stop stop-color="#6FE5FA"/>
<stop offset="1" stop-color="#1D6A7C"/>
</linearGradient>
</defs>
</svg>
