<svg width="267" height="500" viewBox="0 0 267 500" fill="none" xmlns="http://www.w3.org/2000/svg">
<path fill-rule="evenodd" clip-rule="evenodd" d="M436.836 400.765C412.481 440.883 333.975 433.759 291.922 454.832C241.49 480.104 205.215 519.029 156.415 488.547C106.603 457.433 100.571 369.823 73.0139 318.094C47.3263 269.875 13.6294 253.646 4.86476 200.08C-4.63538 142.018 -2.18274 107.557 44.437 72.9637C90.7874 38.5701 132.256 61.1327 190.366 56.4306C238.685 52.5209 291.519 -15.0434 336.472 4.38316C381.531 23.8556 359.944 86.6523 375.953 132.894C389.674 172.524 431.85 180.065 419.606 244.508C407.36 288.513 456.946 367.639 436.836 400.765Z" fill="url(#paint0_linear)"/>
<defs>
<linearGradient id="paint0_linear" x1="-7.25979" y1="150.367" x2="360.225" y2="305.586" gradientUnits="userSpaceOnUse">
<stop stop-color="#F893CA"/>
<stop offset="1" stop-color="#BC1D73"/>
</linearGradient>
</defs>
</svg>
