<svg width="596" height="729" viewBox="0 0 596 729" fill="none" xmlns="http://www.w3.org/2000/svg">
<path fill-rule="evenodd" clip-rule="evenodd" d="M-134.862 1188.86C-226.966 1196.33 -321.632 1204.91 -400.739 1153.32C-495.61 1091.45 -614.402 1009.03 -615.1 875.664C-615.813 739.53 -460.715 676.541 -403.872 555.049C-350.884 441.799 -378.057 287.139 -298.431 198.842C-212.123 103.135 -81.2384 37.2116 25.0855 79.3788C130.795 121.302 96.4161 341.934 165.238 445.894C222.463 532.337 434.292 552.129 475.733 664.815C517.709 778.957 510.514 825.62 459.474 923.151C415.776 1006.65 156.732 1071.28 82.1286 1114.18C11.9979 1154.51 -58.8107 1182.7 -134.862 1188.86Z" fill="url(#paint0_linear)"/>
<defs>
<linearGradient id="paint0_linear" x1="151.5" y1="296" x2="81.8591" y2="807.111" gradientUnits="userSpaceOnUse">
<stop stop-color="#D485E5"/>
<stop offset="1" stop-color="#2377A1"/>
</linearGradient>
</defs>
</svg>
