<svg width="790" height="919" viewBox="0 0 790 919" fill="none" xmlns="http://www.w3.org/2000/svg">
<path fill-rule="evenodd" clip-rule="evenodd" d="M892.883 -312.998C984.94 -304.957 1079.71 -297.588 1149.07 -233.494C1232.26 -156.627 1335.6 -55.5039 1313.98 76.1044C1291.92 210.44 1128.47 246.604 1052.11 356.878C980.927 459.672 981.851 616.698 888.58 690.436C787.482 770.36 647.416 813.467 549.642 754.112C452.432 695.1 523.225 483.326 472.758 369.32C430.795 274.524 225.259 219.585 203.248 101.556C180.951 -17.9987 195.849 -62.8014 262.481 -150.423C319.528 -225.441 585.731 -245.831 666.459 -275.652C742.346 -303.686 816.872 -319.638 892.883 -312.998Z" fill="url(#paint0_linear)"/>
<defs>
<linearGradient id="paint0_linear" x1="505.5" y1="377.5" x2="724.928" y2="-39.4812" gradientUnits="userSpaceOnUse">
<stop stop-color="#FBC6C0"/>
<stop offset="1" stop-color="#F96C62"/>
</linearGradient>
</defs>
</svg>
