<svg width="295" height="602" viewBox="0 0 295 602" fill="none" xmlns="http://www.w3.org/2000/svg">
<path fill-rule="evenodd" clip-rule="evenodd" d="M-134.255 138.461C-104.575 109.515 -74.3038 79.5163 -33.8301 70.419C14.7089 59.5089 76.7637 47.1914 111.451 83.2335C146.858 120.022 109.9 182.467 121.772 232.097C132.839 278.361 182.111 312.452 177.591 359.719C172.691 410.952 144.801 467.118 97.421 486.73C50.3148 506.229 1.99477 461.438 -48.4756 453.297C-90.4415 446.528 -138.52 469.068 -172.407 443.207C-206.374 417.284 -212.274 368.357 -215.552 325.791C-218.362 289.312 -203.953 255.634 -189.431 222.172C-175.78 190.717 -158.762 162.362 -134.255 138.461Z" fill="url(#paint0_linear)"/>
<defs>
<linearGradient id="paint0_linear" x1="146.978" y1="369.931" x2="-128.607" y2="158.641" gradientUnits="userSpaceOnUse">
<stop stop-color="#FCB03B"/>
<stop offset="1" stop-color="#F7751C"/>
</linearGradient>
</defs>
</svg>
