<svg width="237" height="479" viewBox="0 0 237 479" fill="none" xmlns="http://www.w3.org/2000/svg">
<path fill-rule="evenodd" clip-rule="evenodd" d="M296.337 396.922C263.997 411.668 237.786 453.583 202.478 448.865C160.134 443.207 124.709 370.689 107.137 330.815C89.2004 290.114 32.4375 278.129 37.2173 234C41.6728 192.865 120.232 170.604 140.575 126.847C159.359 86.4443 166.174 44.5088 210.101 42.7063C253.774 40.9142 279.82 92.0331 318.209 113.842C350.129 131.976 395.468 127.99 415.341 159.303C435.26 190.689 425.862 232.45 416.188 268.225C407.898 298.884 386.519 322.083 365.11 345.071C344.985 366.682 323.039 384.746 296.337 396.922Z" fill="url(#paint0_linear)"/>
<defs>
<linearGradient id="paint0_linear" x1="136.288" y1="123.289" x2="300.273" y2="377.018" gradientUnits="userSpaceOnUse">
<stop stop-color="#F574BA"/>
<stop offset="1" stop-color="#C9287F"/>
</linearGradient>
</defs>
</svg>
