<svg width="792" height="685" viewBox="0 0 792 685" fill="none" xmlns="http://www.w3.org/2000/svg">
<path fill-rule="evenodd" clip-rule="evenodd" d="M-441.025 -214.539C-432.306 -306.534 -424.24 -401.245 -359.637 -470.136C-282.159 -552.756 -180.279 -655.344 -48.8331 -632.76C85.3365 -609.708 120.296 -445.998 230.005 -368.828C332.273 -296.892 489.301 -296.661 562.35 -202.849C641.529 -101.166 683.603 39.2136 623.53 136.549C563.804 233.321 352.556 160.972 238.182 210.598C143.08 251.861 86.629 456.987 -31.5585 478.13C-151.274 499.545 -195.966 484.318 -283.094 417.043C-357.691 359.445 -376.121 93.0989 -405.347 12.1544C-432.821 -63.9375 -448.224 -138.579 -441.025 -214.539Z" fill="url(#paint0_linear)"/>
<defs>
<linearGradient id="paint0_linear" x1="526.904" y1="193.984" x2="-25.2772" y2="130.293" gradientUnits="userSpaceOnUse">
<stop stop-color="#BFB8B2"/>
<stop offset="1" stop-color="#749AC0"/>
</linearGradient>
</defs>
</svg>
