<svg width="596" height="709" viewBox="0 0 596 709" fill="none" xmlns="http://www.w3.org/2000/svg">
<path fill-rule="evenodd" clip-rule="evenodd" d="M1186.57 574.638C1217.7 661.641 1250.58 750.828 1221.31 840.621C1186.21 948.307 1137.48 1084.43 1008.87 1119.75C877.592 1155.8 776.476 1022.39 644.389 999.056C521.262 977.306 378.97 1043.72 273.02 989.765C158.179 931.281 60.5191 822.015 73.6196 708.387C86.6442 595.416 308.632 571.303 391.146 477.838C459.757 400.122 423.844 190.423 521.896 121.134C621.216 50.9482 668.146 45.7753 775.587 69.7275C867.574 90.2346 997.269 323.6 1058.08 384.498C1115.24 441.745 1160.86 502.799 1186.57 574.638Z" fill="url(#paint0_linear)"/>
<defs>
<linearGradient id="paint0_linear" x1="208.417" y1="603.907" x2="733.218" y2="534.065" gradientUnits="userSpaceOnUse">
<stop stop-color="#BFB8B2"/>
<stop offset="1" stop-color="#6C93B5"/>
</linearGradient>
</defs>
</svg>
