<svg width="548" height="529" viewBox="0 0 548 529" fill="none" xmlns="http://www.w3.org/2000/svg">
<path fill-rule="evenodd" clip-rule="evenodd" d="M437.865 364.468C421.224 397.237 430.048 451.64 396.376 468.072C355.994 487.778 271.733 441.275 227.03 414.581C181.4 387.334 133.543 356.637 104.764 312.812C77.9366 271.96 154.182 260.434 138.973 207.779C124.93 159.16 60.1689 151.595 96.3471 124.023C132.316 96.6096 187.596 144.377 236.627 142.011C277.396 140.043 284.593 91.6829 324.426 110.392C389.37 140.896 345.675 180.487 364.053 219.434C379.804 252.811 459.163 241.756 457.996 275.74C456.899 307.686 451.606 337.411 437.865 364.468Z" fill="url(#paint0_linear)"/>
<defs>
<linearGradient id="paint0_linear" x1="230.5" y1="169.5" x2="223.77" y2="363.651" gradientUnits="userSpaceOnUse">
<stop stop-color="#EB65AE"/>
<stop offset="0.201042" stop-color="#F574BA"/>
<stop offset="0.898958" stop-color="#C9287F" stop-opacity="0"/>
</linearGradient>
</defs>
</svg>
