<svg width="349" height="350" viewBox="0 0 349 350" fill="none" xmlns="http://www.w3.org/2000/svg">
<path fill-rule="evenodd" clip-rule="evenodd" d="M274.65 107.207C290.415 125.758 306.772 144.697 310.475 168.773C314.915 197.647 319.637 234.496 297.129 253.368C274.154 272.632 239.057 248.471 209.505 253.431C181.958 258.055 160.006 285.55 132.497 281.002C102.681 276.073 70.8978 257.477 61.3125 228.932C51.7826 200.552 79.965 174.045 86.7626 144.805C92.4149 120.492 81.1423 91.4208 97.6546 72.6081C114.206 53.751 143.106 52.2615 168.174 52.0517C189.658 51.8718 208.808 61.6664 227.827 71.5184C245.706 80.7798 261.633 91.8895 274.65 107.207Z" fill="url(#paint0_linear)"/>
<defs>
<linearGradient id="paint0_linear" x1="127.745" y1="262.658" x2="262.601" y2="109.704" gradientUnits="userSpaceOnUse">
<stop stop-color="#FCB03B"/>
<stop offset="1" stop-color="#F7751C"/>
</linearGradient>
</defs>
</svg>
