<svg width="719" height="398" viewBox="0 0 719 398" fill="none" xmlns="http://www.w3.org/2000/svg">
<path fill-rule="evenodd" clip-rule="evenodd" d="M532.17 -152.784C570.085 -125.124 556.347 -47.5008 573.788 -3.81659C594.705 48.5728 597.494 143.857 562.994 189.905C527.779 236.906 472.901 179.66 419.027 202.743C368.808 224.261 349.788 256.465 295.671 260.668C237.014 265.223 202.885 259.865 172.358 210.487C142.007 161.394 167.996 121.982 168.225 63.6819C168.416 15.2057 105.562 -43.1525 128.721 -86.3017C151.934 -129.553 212.68 -102.732 260.111 -114.774C300.759 -125.093 311.839 -166.481 375.016 -148.83C417.828 -132.907 500.864 -175.624 532.17 -152.784Z" fill="url(#paint0_linear)" fill-opacity="0.8"/>
<defs>
<linearGradient id="paint0_linear" x1="245.111" y1="268.544" x2="430.854" y2="-84.4964" gradientUnits="userSpaceOnUse">
<stop stop-color="#C0E751"/>
<stop offset="1" stop-color="#6D8612"/>
</linearGradient>
</defs>
</svg>
