<svg width="303" height="638" viewBox="0 0 303 638" fill="none" xmlns="http://www.w3.org/2000/svg">
<path fill-rule="evenodd" clip-rule="evenodd" d="M-97.2626 79.7199C-51.9855 58.7817 -5.61678 36.8794 43.9731 43.2363C103.445 50.8601 178.824 62.4808 203.786 118.312C229.264 175.299 162.322 231.714 155.945 293.684C150 351.45 192.299 411.097 168.257 463.542C142.197 520.387 88.0614 573.352 26.4239 576.211C-34.8577 579.054 -58.1508 479.825 -112.193 449.504C-157.129 424.292 -234.376 457.906 -262.502 414.108C-290.694 370.207 -277.816 311.525 -264.508 261.244C-253.103 218.152 -223.271 185.432 -193.397 153.007C-165.314 122.527 -134.648 97.0087 -97.2626 79.7199Z" fill="url(#paint0_linear)" fill-opacity="0.5"/>
<defs>
<linearGradient id="paint0_linear" x1="129.416" y1="462.562" x2="-102.638" y2="107.686" gradientUnits="userSpaceOnUse">
<stop stop-color="#45C6DD"/>
<stop offset="1" stop-color="#187B93"/>
</linearGradient>
</defs>
</svg>
