<svg width="862" height="868" viewBox="0 0 862 868" fill="none" xmlns="http://www.w3.org/2000/svg">
<path fill-rule="evenodd" clip-rule="evenodd" d="M160.395 617.647C123.391 575.509 84.8769 532.538 83.7892 474.688C82.4848 405.309 83.4677 316.591 153.792 266.451C225.574 215.272 314.565 267.405 399.253 249.768C478.197 233.327 550.287 162.323 625.585 168.193C707.203 174.556 789.057 213.783 804.898 281.39C820.649 348.607 731.488 418.384 701.172 490.772C675.965 550.962 696.33 619.532 642.824 668.396C589.192 717.375 507.667 726.449 437.37 731.689C377.124 736.179 327.26 715.973 277.786 695.602C231.278 676.453 190.949 652.441 160.395 617.647Z" fill="url(#paint0_linear)"/>
<defs>
<linearGradient id="paint0_linear" x1="631.823" y1="211.907" x2="269.26" y2="668.219" gradientUnits="userSpaceOnUse">
<stop stop-color="#FBA837"/>
<stop offset="1" stop-color="#F66F18"/>
</linearGradient>
</defs>
</svg>
