<svg width="92" height="123" viewBox="0 0 92 123" fill="none" xmlns="http://www.w3.org/2000/svg">
<path d="M28 105V64.95C31.45 64.95 34.75 64.95 38.35 64.35L59.9998 107C59.9998 107 62.1173 117.082 68.4998 118.5C72.8924 119.476 75.5925 113.903 79.4998 110.5C83.9998 107.5 86.8119 117.487 89.4998 115.5C92.7037 113.132 91.2999 100.8 91.2999 100.8L62.7999 54.6C83.6499 41.25 83.05 21.45 83.05 0C73.75 0 64.6 0 55.45 0C55.45 19.65 56.8 39.75 29.95 39.75H28V0C18.7 0 9.69995 0 0.699951 0V105C0.699951 109 5.55959 122.5 8.49976 122.5C15.4998 124.5 21.4998 108 28 105Z" fill="url(#paint0_linear)"/>
<defs>
<linearGradient id="paint0_linear" x1="40.6999" y1="-8" x2="40.6999" y2="142" gradientUnits="userSpaceOnUse">
<stop stop-color="#FF9ED2"/>
<stop offset="1" stop-color="#F140A0"/>
</linearGradient>
</defs>
</svg>
