<svg width="467" height="262" viewBox="0 0 467 262" fill="none" xmlns="http://www.w3.org/2000/svg">
<path fill-rule="evenodd" clip-rule="evenodd" d="M409.17 -152.784C447.085 -125.124 433.347 -47.5008 450.788 -3.81659C471.705 48.5728 474.494 143.857 439.994 189.905C404.779 236.906 349.901 179.66 296.027 202.743C245.808 224.261 226.788 256.465 172.671 260.668C114.014 265.223 79.8846 259.865 49.3577 210.487C19.0073 161.394 44.996 121.982 45.2253 63.6819C45.416 15.2057 -17.4381 -43.1525 5.7207 -86.3017C28.9341 -129.553 89.6802 -102.732 137.111 -114.774C177.759 -125.093 188.839 -166.481 252.016 -148.83C294.828 -132.907 377.864 -175.624 409.17 -152.784Z" fill="url(#paint0_linear)" fill-opacity="0.8"/>
<defs>
<linearGradient id="paint0_linear" x1="122.111" y1="268.544" x2="307.854" y2="-84.4964" gradientUnits="userSpaceOnUse">
<stop stop-color="#66D8EC"/>
<stop offset="1" stop-color="#3D8C9E"/>
</linearGradient>
</defs>
</svg>
