<svg width="574" height="843" viewBox="0 0 574 843" fill="none" xmlns="http://www.w3.org/2000/svg">
<path fill-rule="evenodd" clip-rule="evenodd" d="M-290.431 258.337C-240.957 203.11 -190.609 145.819 -116.073 132.141C-26.6843 115.737 87.9747 98.0752 162.058 175.302C237.677 254.13 182.216 376.467 216.252 478.569C247.98 573.745 349.231 648.737 351.671 744.108C354.317 847.482 314.568 958.15 229.4 992.347C144.723 1026.35 42.8471 878.962 -54.6337 856.482C-135.689 837.79 -269.894 943.293 -356.26 900.61C-443.743 857.375 -465.334 826.245 -489.51 741.293C-510.21 668.559 -395.161 487.85 -375.447 421.671C-356.914 359.46 -331.282 303.937 -290.431 258.337Z" fill="url(#paint0_linear)"/>
<defs>
<linearGradient id="paint0_linear" x1="7.49999" y1="1101" x2="-346.096" y2="217.144" gradientUnits="userSpaceOnUse">
<stop stop-color="#FC46A9" stop-opacity="0.8"/>
<stop offset="1" stop-color="#45C6DD"/>
</linearGradient>
</defs>
</svg>
