<svg width="445" height="643" viewBox="0 0 445 643" fill="none" xmlns="http://www.w3.org/2000/svg">
<path fill-rule="evenodd" clip-rule="evenodd" d="M471.063 -265.382C543.518 -281.13 617.891 -298.038 686.298 -265.433C768.337 -226.33 871.589 -173.436 886.348 -67.4424C901.412 40.7474 784.772 107.36 752.504 210.034C722.425 305.745 760.506 425.85 706.583 504.552C648.136 589.858 551.066 656.225 462.017 634.013C373.482 611.93 377.327 432.803 311.522 357.453C256.805 294.8 86.2318 301.619 41.2738 216.415C-4.26543 130.109 -3.51238 92.2324 26.6919 9.23172C52.5518 -61.8306 251.685 -140.812 306.447 -182.876C357.926 -222.419 411.237 -252.38 471.063 -265.382Z" fill="url(#paint0_linear)"/>
<defs>
<linearGradient id="paint0_linear" x1="272.94" y1="393.534" x2="403.083" y2="-127.463" gradientUnits="userSpaceOnUse">
<stop stop-color="#FC46A9" stop-opacity="0.8"/>
<stop offset="1" stop-color="#45C6DD"/>
</linearGradient>
</defs>
</svg>
