<svg width="276" height="203" viewBox="0 0 276 203" fill="none" xmlns="http://www.w3.org/2000/svg">
<path fill-rule="evenodd" clip-rule="evenodd" d="M118.363 33.6503C142.788 28.7889 176.763 -1.42426 200.001 7.91042C227.869 19.1053 193.236 32.8329 198.62 63.8728C204.116 95.556 284.657 106.853 274.138 137.077C264.332 165.25 178.28 132.428 160.353 155.693C140.922 180.91 162.645 195.334 132.681 202.542C100.282 205.411 113.777 180.777 91.2585 158.896C72.5345 140.702 9.34607 150.744 0.987185 125.334C-7.39141 99.8633 48.9055 95.3935 61.3772 71.8794C72.0656 51.7275 44.7499 14.6517 63.0973 2.13039C80.3447 -9.64028 98.196 37.6644 118.363 33.6503Z" fill="url(#paint0_linear)"/>
<defs>
<linearGradient id="paint0_linear" x1="87.6851" y1="3.4743" x2="202.695" y2="225.426" gradientUnits="userSpaceOnUse">
<stop stop-color="#4FE4FF"/>
<stop offset="1" stop-color="#007E9C"/>
</linearGradient>
</defs>
</svg>
