<svg width="262" height="247" viewBox="0 0 262 247" fill="none" xmlns="http://www.w3.org/2000/svg">
<path fill-rule="evenodd" clip-rule="evenodd" d="M42.416 205.436C19.3734 189.176 49.03 140.523 35.7527 116.122C19.8295 86.8594 -10.8547 69.7237 3.9535 45.5965C19.0685 20.9693 46.4834 50.319 73.8295 39.3261C99.3206 29.0789 114.845 1.02839 143.956 0.361608C175.51 -0.361133 168.926 36.6171 189.823 64.5239C210.599 92.2695 256.462 96.3354 261.38 128.192C262.374 158.767 220.332 146.346 211.45 169.231C202.548 192.17 224.664 241.194 199.873 246.346C178.626 250.761 159.602 209.458 136.799 202.918C115.364 196.77 61.4422 218.862 42.416 205.436Z" fill="url(#paint0_linear)"/>
<defs>
<linearGradient id="paint0_linear" x1="168.396" y1="-1.11263" x2="74.3341" y2="173.63" gradientUnits="userSpaceOnUse">
<stop stop-color="#FCB03B"/>
<stop offset="1" stop-color="#F7751C"/>
</linearGradient>
</defs>
</svg>
