<svg width="227" height="235" viewBox="0 0 227 235" fill="none" xmlns="http://www.w3.org/2000/svg">
<path fill-rule="evenodd" clip-rule="evenodd" d="M17.8127 134.312C14.0242 114.426 -5.62542 94.258 1.7569 75.3592C10.6103 52.6944 55.5231 42.8939 79.9606 38.5599C104.905 34.1361 123.698 -7.33096 147.469 1.27758C169.628 9.30221 166.838 67.4577 188.299 84.6274C208.116 100.481 230.398 109.919 225.459 134.468C220.548 158.875 188.744 166.378 171.488 184.672C157.141 199.883 153.219 225.508 133.207 232.272C113.149 239.052 91.312 228.208 72.8249 218.021C56.9812 209.29 47.0342 194.325 37.2077 179.373C27.9704 165.317 20.941 150.733 17.8127 134.312Z" fill="url(#paint0_linear)"/>
<defs>
<linearGradient id="paint0_linear" x1="190.847" y1="82.736" x2="28.2941" y2="139.18" gradientUnits="userSpaceOnUse">
<stop stop-color="#F574BA"/>
<stop offset="1" stop-color="#C9287F"/>
</linearGradient>
</defs>
</svg>
