<svg width="212" height="494" viewBox="0 0 212 494" fill="none" xmlns="http://www.w3.org/2000/svg">
<path fill-rule="evenodd" clip-rule="evenodd" d="M-141.793 492.319C-187.095 480.056 -202.041 402.657 -233.958 368.105C-272.236 326.669 -308.934 238.691 -293.195 183.347C-277.129 126.857 -205.401 160.677 -163.353 119.845C-124.158 81.7831 -117.921 44.9059 -68.8911 21.6176C-15.7475 -3.62496 18.0397 -10.8335 64.2137 24.3526C110.121 59.3356 99.955 105.437 120.601 159.959C137.769 205.294 217.343 237.299 211.157 285.878C204.956 334.571 138.635 331.262 98.6537 359.478C64.389 383.659 68.8515 426.271 3.54188 432.394C-42.1336 432.844 -104.387 502.444 -141.793 492.319Z" fill="url(#paint0_linear)" fill-opacity="0.8"/>
<defs>
<linearGradient id="paint0_linear" x1="-24.4968" y1="-3.82892" x2="-71.6185" y2="392.299" gradientUnits="userSpaceOnUse">
<stop stop-color="#C0E751"/>
<stop offset="1" stop-color="#6D8612"/>
</linearGradient>
</defs>
</svg>
