<svg width="232" height="485" viewBox="0 0 232 485" fill="none" xmlns="http://www.w3.org/2000/svg">
<path fill-rule="evenodd" clip-rule="evenodd" d="M198.621 1.64959C241.62 -9.35645 289.97 47.3879 332.332 60.9609C383.137 77.2387 402.765 108.64 415.586 161.522C428.673 215.5 405.437 244.991 389.846 298.182C375.312 347.765 387.354 381.023 357.845 423.026C325.861 468.554 301.409 490.224 247.016 482.768C192.938 475.356 179.833 432.676 137.446 397.416C102.201 368.098 21.7998 378.817 4.26592 335.952C-13.3093 292.985 42.8191 264.82 62.5857 222.975C79.5258 187.114 56.0065 154.119 106.909 118.661C144.294 97.0182 163.118 10.7373 198.621 1.64959Z" fill="url(#paint0_linear)" fill-opacity="0.8"/>
<defs>
<linearGradient id="paint0_linear" x1="333.157" y1="464.647" x2="187.446" y2="116.657" gradientUnits="userSpaceOnUse">
<stop stop-color="#C0E751"/>
<stop offset="1" stop-color="#6D8612"/>
</linearGradient>
</defs>
</svg>
