<svg width="369" height="739" viewBox="0 0 369 739" fill="none" xmlns="http://www.w3.org/2000/svg">
<path fill-rule="evenodd" clip-rule="evenodd" d="M-191.85 532.957C-228.403 499.013 -266.263 464.424 -279.2 416.131C-294.715 358.214 -312.568 284.063 -270.386 239.783C-227.329 194.584 -149.732 235.111 -89.9771 217.495C-34.2757 201.074 4.85796 139.304 62.5034 141.647C124.986 144.186 194.533 174.173 220.568 230.115C246.453 285.734 163.485 344.94 155.94 406.446C149.667 457.588 210.08 516.301 180.231 558.944C150.312 601.687 91.1327 612.041 39.5622 618.809C-4.63438 624.609 -46.2278 609.425 -87.5634 594.09C-126.421 579.674 -161.667 560.986 -191.85 532.957Z" fill="url(#paint0_linear)" fill-opacity="0.5"/>
<defs>
<linearGradient id="paint0_linear" x1="76.3368" y1="177.954" x2="-163.935" y2="527.318" gradientUnits="userSpaceOnUse">
<stop stop-color="#45C6DD"/>
<stop offset="1" stop-color="#187B93"/>
</linearGradient>
</defs>
</svg>
