<svg width="278" height="710" viewBox="0 0 278 710" fill="none" xmlns="http://www.w3.org/2000/svg">
<path fill-rule="evenodd" clip-rule="evenodd" d="M518.683 602.771C464.936 634.071 426.583 711.615 364.281 709.539C289.564 707.05 215.269 586.935 177.737 520.559C139.428 452.807 0.0746684 440.732 0.724151 363.061C1.32959 290.658 172.681 239.309 200.495 159.579C226.178 85.96 230.752 11.7534 306.928 0.976298C382.664 -9.73851 436.906 74.745 507.545 106.045C566.281 132.071 644.535 117.246 684.584 168.315C724.727 219.504 715.623 293.856 705 357.832C695.896 412.659 662.702 456.773 629.422 500.525C598.136 541.654 563.063 576.926 518.683 602.771Z" fill="url(#paint0_linear)"/>
<defs>
<linearGradient id="paint0_linear" x1="192.411" y1="154.129" x2="522.076" y2="567.427" gradientUnits="userSpaceOnUse">
<stop stop-color="#F574BA"/>
<stop offset="1" stop-color="#C9287F"/>
</linearGradient>
</defs>
</svg>
