<svg width="193" height="494" viewBox="0 0 193 494" fill="none" xmlns="http://www.w3.org/2000/svg">
<path fill-rule="evenodd" clip-rule="evenodd" d="M-160.793 492.319C-206.095 480.056 -221.041 402.657 -252.958 368.105C-291.236 326.669 -327.934 238.691 -312.195 183.347C-296.129 126.857 -224.401 160.677 -182.353 119.845C-143.158 81.7831 -136.921 44.9059 -87.8911 21.6176C-34.7475 -3.62496 -0.960257 -10.8335 45.2137 24.3526C91.121 59.3356 80.955 105.437 101.601 159.959C118.769 205.294 198.343 237.299 192.157 285.878C185.956 334.571 119.635 331.262 79.6537 359.478C45.389 383.659 49.8515 426.271 -15.4581 432.394C-61.1336 432.844 -123.387 502.444 -160.793 492.319Z" fill="url(#paint0_linear)" fill-opacity="0.8"/>
<defs>
<linearGradient id="paint0_linear" x1="-43.4968" y1="-3.82892" x2="-90.6185" y2="392.299" gradientUnits="userSpaceOnUse">
<stop stop-color="#C0E751"/>
<stop offset="1" stop-color="#6D8612"/>
</linearGradient>
</defs>
</svg>
