<svg width="71" height="149" viewBox="0 0 71 149" fill="none" xmlns="http://www.w3.org/2000/svg">
<path fill-rule="evenodd" clip-rule="evenodd" d="M67.9472 143.524C82.511 142.929 99.8653 153.41 111.91 145.144C126.355 135.23 125.884 102.135 124.928 84.2908C123.952 66.0769 122.187 46.6733 112.264 31.4127C103.014 17.1872 84.7129 39.5419 69.1646 27.3002C54.8082 15.9968 64.2897 -5.44873 47.8836 2.02831C31.5722 9.46216 37.9111 33.6183 27.9047 48.7087C19.5844 61.2562 1.34165 56.6714 0.420332 71.8526C-1.0818 96.6045 20.9308 88.4647 31.0965 99.7623C39.8086 109.444 21.0887 132.846 33.1798 137.291C44.546 141.47 55.9219 144.015 67.9472 143.524Z" fill="url(#paint0_linear)" fill-opacity="0.8"/>
<defs>
<linearGradient id="paint0_linear" x1="72.1114" y1="16.8847" x2="59.1095" y2="140.095" gradientUnits="userSpaceOnUse">
<stop stop-color="#F574BA"/>
<stop offset="1" stop-color="#C9287F"/>
</linearGradient>
</defs>
</svg>
