<svg width="231" height="366" viewBox="0 0 231 366" fill="none" xmlns="http://www.w3.org/2000/svg">
<path fill-rule="evenodd" clip-rule="evenodd" d="M-50.7586 364.268C-94.0021 353.596 -78.3465 264.977 -111.905 236.717C-152.151 202.824 -207.139 195.257 -199.226 151.253C-191.149 106.336 -133.949 133.75 -100.042 101.859C-68.4348 72.1306 -61.7235 21.943 -19.284 4.22689C26.7166 -14.9759 38.2894 43.2048 85.0721 72.243C131.585 101.113 201.388 80.7286 226.934 124.763C245.975 169.168 176.989 175.066 177.08 213.836C177.171 252.697 237.888 312.097 204.381 333.928C175.665 352.638 123.936 302.817 86.6331 306.305C51.5668 309.584 -15.0525 373.08 -50.7586 364.268Z" fill="url(#paint0_linear)" fill-opacity="0.75"/>
<defs>
<linearGradient id="paint0_linear" x1="15.8196" y1="-11.9916" x2="-22.0909" y2="299.132" gradientUnits="userSpaceOnUse">
<stop stop-color="#FCB03B"/>
<stop offset="1" stop-color="#F7751C"/>
</linearGradient>
</defs>
</svg>
