<svg width="108" height="112" viewBox="0 0 108 112" fill="none" xmlns="http://www.w3.org/2000/svg">
<path d="M0.00455793 85.1874C0.00455793 85.1874 -0.562994 113.191 10.9623 111.961C19.5281 111.046 21.0055 98.1131 28.0078 93.0977C37.0594 86.6144 42.4788 87.9372 53.576 87.0129C75.4917 85.1874 108 85.1874 108 85.1874V0H85.7191V65.1075H65.1427V0H42.8618V65.1075C42.8618 65.1075 36.8393 65.6837 32.8779 68.1499C30.5949 69.5713 28.8674 71.9434 26.1815 71.8008C23.1602 71.6404 22.2855 65.1075 22.2855 65.1075V0H0.00455793V85.1874Z" fill="url(#paint0_linear)"/>
<defs>
<linearGradient id="paint0_linear" x1="54" y1="0" x2="54" y2="112" gradientUnits="userSpaceOnUse">
<stop offset="0.326042" stop-color="#FAA535"/>
<stop offset="1" stop-color="#F7711A"/>
</linearGradient>
</defs>
</svg>
