<svg width="793" height="643" viewBox="0 0 793 643" fill="none" xmlns="http://www.w3.org/2000/svg">
<path fill-rule="evenodd" clip-rule="evenodd" d="M-437.156 -236.53C-430.501 -328.697 -424.56 -423.565 -361.516 -493.887C-285.91 -578.222 -186.354 -683.068 -54.4355 -663.435C80.217 -643.396 118.837 -480.51 230.248 -405.818C334.102 -336.192 491.096 -339.48 566.229 -247.33C647.666 -147.446 692.876 -8.04475 634.999 90.6121C577.458 188.699 364.641 121.102 251.408 173.278C157.254 216.663 105.415 423.003 -12.2691 446.789C-131.475 470.882 -176.496 456.66 -265.111 391.355C-340.979 335.443 -365.374 69.5765 -396.406 -10.6927C-425.579 -86.1498 -442.651 -160.427 -437.156 -236.53Z" fill="url(#paint0_linear)"/>
<defs>
<linearGradient id="paint0_linear" x1="539.685" y1="150.199" x2="-13.7847" y2="98.8986" gradientUnits="userSpaceOnUse">
<stop stop-color="#FA7518"/>
<stop offset="1" stop-color="#F2C10E"/>
</linearGradient>
</defs>
</svg>
