<svg width="627" height="635" viewBox="0 0 627 635" fill="none" xmlns="http://www.w3.org/2000/svg">
<path fill-rule="evenodd" clip-rule="evenodd" d="M1131.55 575.999C1152.97 665.889 1175.89 758.139 1136.96 844.187C1090.27 947.382 1026.93 1077.35 895.228 1098.38C760.795 1119.84 674.895 976.155 546.157 938.5C426.152 903.399 277.443 953.834 178.037 888.601C70.2908 817.895 -14.8175 698.592 10.6459 587.082C35.9621 476.216 259.255 476.554 351.508 392.686C428.215 322.951 415.479 110.58 520.528 52.4435C626.936 -6.44489 674.151 -6.44801 778.323 29.1244C867.511 59.5804 970.874 305.743 1024.65 372.933C1075.2 436.095 1113.86 501.778 1131.55 575.999Z" fill="url(#paint0_linear)"/>
<defs>
<linearGradient id="paint0_linear" x1="156.073" y1="497.99" x2="685.366" y2="486.031" gradientUnits="userSpaceOnUse">
<stop stop-color="#FCBA0D"/>
<stop offset="1" stop-color="#FA7418"/>
</linearGradient>
</defs>
</svg>
