<svg width="286" height="654" viewBox="0 0 286 654" fill="none" xmlns="http://www.w3.org/2000/svg">
<path fill-rule="evenodd" clip-rule="evenodd" d="M-161.089 148.764C-124.09 124.367 -99.8742 67.679 -55.4671 66.6883C-2.21082 65.5001 55.4039 148.014 84.7348 193.751C114.674 240.436 214.295 243.507 216.909 298.793C219.346 350.328 99.4715 393.647 82.8406 451.473C67.4844 504.866 67.1686 557.842 13.3998 568.527C-40.0585 579.149 -81.9948 521.192 -133.491 501.721C-176.31 485.531 -231.397 499.177 -261.912 464.43C-292.5 429.601 -288.967 376.343 -283.944 330.407C-279.638 291.039 -257.769 258.339 -235.824 225.893C-215.195 195.393 -191.639 168.909 -161.089 148.764Z" fill="url(#paint0_linear)" fill-opacity="0.8"/>
<defs>
<linearGradient id="paint0_linear" x1="88.8079" y1="455.03" x2="-162.103" y2="174.044" gradientUnits="userSpaceOnUse">
<stop stop-color="#F574BA"/>
<stop offset="1" stop-color="#C9287F"/>
</linearGradient>
</defs>
</svg>
