<svg width="329" height="417" viewBox="0 0 329 417" fill="none" xmlns="http://www.w3.org/2000/svg">
<path fill-rule="evenodd" clip-rule="evenodd" d="M311.451 526.606C263.039 538.638 213.374 551.411 165.87 535.824C108.9 517.13 37.0607 491.514 23.0667 431.98C8.78258 371.212 85.1554 328.422 103.095 268.764C119.818 213.153 89.5156 146.604 123.009 99.6286C159.314 48.7118 222.46 6.89616 283.532 15.7024C344.251 24.4578 348.43 126.299 395.791 166.259C435.172 199.486 517.368 181.03 536.737 229.343C556.152 277.77 532.448 332.974 509.904 379.847C490.584 420.018 455.121 446.531 419.672 472.746C386.349 497.389 351.424 516.671 311.451 526.606Z" fill="url(#paint0_linear)"/>
<defs>
<linearGradient id="paint0_linear" x1="160.97" y1="107.909" x2="321.999" y2="500.153" gradientUnits="userSpaceOnUse">
<stop stop-color="#FCB03B"/>
<stop offset="1" stop-color="#F88223"/>
</linearGradient>
</defs>
</svg>
