<svg width="383" height="839" viewBox="0 0 383 839" fill="none" xmlns="http://www.w3.org/2000/svg">
<path fill-rule="evenodd" clip-rule="evenodd" d="M572.544 676.755C525.314 712.51 477.061 749.659 417.918 754.838C346.989 761.048 256.592 766.648 213.498 708.192C169.511 648.525 232.896 566.126 224.607 492.615C216.881 424.089 152.705 365.595 167.323 298.663C183.167 226.113 232.567 150.959 303.355 132.038C373.734 113.227 434.702 186.888 505.078 208.385C563.595 226.26 635.884 203.274 679.603 246.968C723.425 290.766 723.34 362.108 720.629 423.813C718.306 476.696 691.977 522.21 665.526 567.391C640.66 609.864 611.541 647.233 572.544 676.755Z" fill="url(#paint0_linear)"/>
<defs>
<linearGradient id="paint0_linear" x1="212.634" y1="289.966" x2="571.7" y2="642.948" gradientUnits="userSpaceOnUse">
<stop stop-color="#FBA837"/>
<stop offset="1" stop-color="#F66F18"/>
</linearGradient>
</defs>
</svg>
