<svg width="355" height="686" viewBox="0 0 355 686" fill="none" xmlns="http://www.w3.org/2000/svg">
<path fill-rule="evenodd" clip-rule="evenodd" d="M-156.753 570.59C-200.522 546.659 -245.715 522.424 -270.113 478.786C-299.373 426.451 -334.886 358.954 -304.867 305.672C-274.226 251.285 -189.053 271.519 -135.452 239.771C-85.4878 210.177 -62.7182 140.689 -6.26206 128.807C54.9315 115.927 124.902 135.504 163.876 183.341C202.624 230.903 141.542 301.084 149.33 362.56C155.805 413.677 228.784 455.759 210.319 504.425C191.81 553.206 136.985 577.773 88.6544 596.996C47.2349 613.47 3.18648 608.963 -40.649 604.246C-81.8565 599.812 -120.613 590.349 -156.753 570.59Z" fill="url(#paint0_linear)" fill-opacity="0.5"/>
<defs>
<linearGradient id="paint0_linear" x1="16.0622" y1="160.606" x2="-131.077" y2="558.269" gradientUnits="userSpaceOnUse">
<stop stop-color="#45C6DD"/>
<stop offset="1" stop-color="#187B93"/>
</linearGradient>
</defs>
</svg>
