<svg width="278" height="479" viewBox="0 0 278 479" fill="none" xmlns="http://www.w3.org/2000/svg">
<path fill-rule="evenodd" clip-rule="evenodd" d="M124.782 11.4936C170.561 -16.7402 244.842 20.9986 298 17.7281C361.751 13.8059 418.749 -8.59233 450.928 39.4509C483.775 88.4897 442.72 173.543 442.352 233.242C442.01 288.891 466.819 317.517 446.768 371.526C425.033 430.067 404.084 461.615 339.12 475.839C274.532 489.981 245.393 452.308 185.052 433.786C134.879 418.386 46.0237 461.266 11.7332 425.175C-22.6381 388.999 32.5685 338.272 41.4777 288.312C49.1129 245.496 11.2009 221.718 57.9964 165.747C93.8163 129.061 86.9816 34.8062 124.782 11.4936Z" fill="url(#paint0_linear)" fill-opacity="0.8"/>
<defs>
<linearGradient id="paint0_linear" x1="103.772" y1="82.5635" x2="305.861" y2="457.675" gradientUnits="userSpaceOnUse">
<stop stop-color="#C0E751"/>
<stop offset="1" stop-color="#6D8612"/>
</linearGradient>
</defs>
</svg>
