<svg width="178" height="433" viewBox="0 0 178 433" fill="none" xmlns="http://www.w3.org/2000/svg">
<path fill-rule="evenodd" clip-rule="evenodd" d="M-134.255 79.4609C-104.575 50.5147 -74.3038 20.5163 -33.8301 11.419C14.7089 0.508851 76.7637 -11.8086 111.451 24.2335C146.858 61.0224 109.9 123.467 121.772 173.097C132.839 219.361 182.111 253.452 177.591 300.719C172.691 351.952 144.801 408.118 97.421 427.73C50.3148 447.229 1.99477 402.438 -48.4756 394.297C-90.4415 387.528 -138.52 410.068 -172.407 384.207C-206.374 358.284 -212.274 309.357 -215.552 266.791C-218.362 230.312 -203.953 196.634 -189.431 163.172C-175.78 131.717 -158.762 103.362 -134.255 79.4609Z" fill="url(#paint0_linear)"/>
<defs>
<linearGradient id="paint0_linear" x1="146.978" y1="310.931" x2="-128.607" y2="99.6411" gradientUnits="userSpaceOnUse">
<stop stop-color="#FCB03B"/>
<stop offset="1" stop-color="#F7751C"/>
</linearGradient>
</defs>
</svg>
