<svg width="201" height="408" viewBox="0 0 201 408" fill="none" xmlns="http://www.w3.org/2000/svg">
<path fill-rule="evenodd" clip-rule="evenodd" d="M260.337 354.922C227.997 369.668 201.786 411.583 166.478 406.865C124.134 401.207 88.7088 328.689 71.1367 288.815C53.2004 248.114 -3.56247 236.129 1.21728 192C5.67281 150.865 84.2318 128.604 104.575 84.847C123.359 44.4443 130.174 2.50879 174.101 0.706285C217.774 -1.08579 243.82 50.0331 282.209 71.842C314.129 89.9761 359.468 85.9901 379.341 117.303C399.26 148.689 389.862 190.45 380.188 226.225C371.898 256.884 350.519 280.083 329.11 303.071C308.985 324.682 287.039 342.746 260.337 354.922Z" fill="url(#paint0_linear)"/>
<defs>
<linearGradient id="paint0_linear" x1="100.288" y1="81.289" x2="264.273" y2="335.018" gradientUnits="userSpaceOnUse">
<stop stop-color="#F574BA"/>
<stop offset="1" stop-color="#C9287F"/>
</linearGradient>
</defs>
</svg>
