<svg width="44" height="58" viewBox="0 0 44 58" fill="none" xmlns="http://www.w3.org/2000/svg">
<path d="M29.6121 25.9191C29.6121 25.9191 29.224 47.4981 29.6121 49.9991C30.0002 52.5 32.2576 57.5 34.0002 57.5C36.5863 57.5 39.5002 53 42.5621 49.9991C45.624 46.9981 42.5621 0.789062 42.5621 0.789062H38.0121L13.2321 25.0091V0.99906C8.96212 0.99906 4.69212 0.99906 0.422119 0.99906L0.000244141 50.5C0.000244141 50.5 1.93719 56.8964 3.50024 57C5.13223 57.1081 7.5356 51.8208 8.50024 50.5C16.4585 39.6035 29.6121 25.9191 29.6121 25.9191Z" fill="url(#paint0_linear)"/>
<defs>
<linearGradient id="paint0_linear" x1="21.5002" y1="-3" x2="21.5002" y2="67" gradientUnits="userSpaceOnUse">
<stop stop-color="#F574BA"/>
<stop offset="1" stop-color="#C92880"/>
</linearGradient>
</defs>
</svg>
