<svg width="293" height="630" viewBox="0 0 293 630" fill="none" xmlns="http://www.w3.org/2000/svg">
<path fill-rule="evenodd" clip-rule="evenodd" d="M-183.756 469.958C-218.822 437.374 -284.502 426.464 -296.901 380.119C-311.771 324.539 -239.923 242.974 -199.432 200.496C-158.102 157.137 -112.264 112.495 -54.9187 95.6095C-1.46366 79.8696 -3.53914 174.725 61.3945 177.385C121.351 179.841 143.491 106.088 168.456 159.777C193.278 213.156 125.879 259.888 118.62 318.906C112.584 367.98 167.89 395.497 137.77 435.341C88.6615 500.303 51.1229 432.988 1.63467 439.467C-40.7774 445.02 -44.0437 543.38 -83.7039 528.652C-120.986 514.807 -154.802 496.863 -183.756 469.958Z" fill="url(#paint0_linear)"/>
<defs>
<linearGradient id="paint0_linear" x1="76.2841" y1="145.106" x2="-154.385" y2="480.275" gradientUnits="userSpaceOnUse">
<stop stop-color="#F574BA"/>
<stop offset="1" stop-color="#C9287F"/>
</linearGradient>
</defs>
</svg>
