<svg width="382" height="705" viewBox="0 0 382 705" fill="none" xmlns="http://www.w3.org/2000/svg">
<path fill-rule="evenodd" clip-rule="evenodd" d="M551.836 514.765C527.481 554.883 448.975 547.759 406.922 568.832C356.49 594.104 320.215 633.029 271.415 602.547C221.603 571.433 215.571 483.823 188.014 432.094C162.326 383.875 128.629 367.646 119.865 314.08C110.365 256.018 112.817 221.557 159.437 186.964C205.787 152.57 247.256 175.133 305.366 170.431C353.685 166.521 406.519 98.9566 451.472 118.383C496.531 137.856 474.944 200.652 490.953 246.894C504.674 286.524 546.85 294.065 534.606 358.508C522.36 402.513 571.946 481.639 551.836 514.765Z" fill="url(#paint0_linear)" fill-opacity="0.8"/>
<defs>
<linearGradient id="paint0_linear" x1="107.74" y1="264.367" x2="475.225" y2="419.586" gradientUnits="userSpaceOnUse">
<stop stop-color="#C0E751"/>
<stop offset="1" stop-color="#6D8612"/>
</linearGradient>
</defs>
</svg>
