<svg width="740" height="819" viewBox="0 0 740 819" fill="none" xmlns="http://www.w3.org/2000/svg">
<path fill-rule="evenodd" clip-rule="evenodd" d="M892.883 -412.998C984.94 -404.957 1079.71 -397.588 1149.07 -333.494C1232.26 -256.627 1335.6 -155.504 1313.98 -23.8956C1291.92 110.44 1128.47 146.604 1052.11 256.878C980.927 359.672 981.851 516.698 888.58 590.436C787.482 670.36 647.416 713.467 549.642 654.112C452.432 595.1 523.225 383.326 472.758 269.32C430.795 174.524 225.259 119.585 203.248 1.55594C180.951 -117.999 195.849 -162.801 262.481 -250.423C319.528 -325.441 585.731 -345.831 666.459 -375.652C742.346 -403.686 816.872 -419.638 892.883 -412.998Z" fill="url(#paint0_linear)"/>
<defs>
<linearGradient id="paint0_linear" x1="511" y1="488" x2="666.698" y2="-18.0161" gradientUnits="userSpaceOnUse">
<stop stop-color="#F2C10E"/>
<stop offset="1" stop-color="#FE253F"/>
</linearGradient>
</defs>
</svg>
