<svg width="734" height="660" viewBox="0 0 734 660" fill="none" xmlns="http://www.w3.org/2000/svg">
<path fill-rule="evenodd" clip-rule="evenodd" d="M-469.408 -114.426C-472.983 -206.764 -477.565 -301.708 -422.682 -378.567C-356.862 -470.743 -269.507 -585.952 -136.226 -581.023C-0.183933 -575.992 56.2058 -418.374 175.191 -356.456C286.105 -298.738 441.774 -319.361 526.633 -236.08C618.613 -145.812 678.956 -12.2624 632.34 92.1878C585.994 196.035 367.01 152.378 260.238 216.752C171.458 270.279 142.746 481.085 28.4127 517.734C-87.3988 554.858 -133.717 545.7 -229.007 490.591C-310.592 443.409 -364.227 181.869 -403.943 105.522C-441.278 33.7523 -466.457 -38.1827 -469.408 -114.426Z" fill="url(#paint0_linear)"/>
<defs>
<linearGradient id="paint0_linear" x1="342.518" y1="188.46" x2="-39.0518" y2="93.3804" gradientUnits="userSpaceOnUse">
<stop stop-color="#E5BBD1"/>
<stop offset="1" stop-color="#8B5D9B"/>
</linearGradient>
</defs>
</svg>
