<svg width="630" height="657" viewBox="0 0 630 657" fill="none" xmlns="http://www.w3.org/2000/svg">
<path fill-rule="evenodd" clip-rule="evenodd" d="M1142.08 611.631C1159.71 702.34 1178.74 795.472 1136.23 879.809C1085.26 980.954 1016.51 1108.15 884.044 1123.63C748.828 1139.42 669.036 992.261 541.993 949.234C423.567 909.126 272.872 953.273 176.293 883.925C71.6097 808.757 -8.41462 685.986 21.708 575.643C51.6564 465.938 274.739 475.651 370.431 395.73C449.998 329.276 446.19 116.559 553.587 62.8835C662.374 8.51444 709.547 10.4936 812.134 50.4083C899.965 84.5819 992.901 334.867 1043.81 404.256C1091.66 469.484 1127.53 536.732 1142.08 611.631Z" fill="url(#paint0_linear)"/>
<defs>
<linearGradient id="paint0_linear" x1="293.434" y1="436.252" x2="707.624" y2="515.592" gradientUnits="userSpaceOnUse">
<stop stop-color="#E585B3"/>
<stop offset="1" stop-color="#724B86"/>
</linearGradient>
</defs>
</svg>
